<svg width="114" height="40" viewBox="0 0 114 40" fill="none" xmlns="http://www.w3.org/2000/svg">
<g clip-path="url(#clip0_826_158)">
<path d="M24.6516 1.94915C25.0449 1.93559 25.0449 1.93559 25.445 1.92203C26.3603 2.06101 26.6417 2.32203 27.1944 3.05084C27.4215 4.15254 27.3842 4.79321 26.7604 5.74576C26.2518 6.35932 25.7603 6.9322 25.1602 7.45762C24.9364 7.45762 24.7126 7.45762 24.4821 7.45762C25.628 9.59321 26.7977 11.6813 28.1436 13.7017C29.4896 16.5966 28.52 19.1593 27.6826 22.078C27.5571 22.5288 27.4283 22.9797 27.3062 23.4339C27.052 24.3424 26.7977 25.2508 26.54 26.1593C26.2112 27.339 25.8925 28.5186 25.5772 29.6983C25.489 30.0373 25.4009 30.3729 25.3093 30.7186C25.1432 31.3356 24.9805 31.9525 24.8177 32.5695C23.6379 36.9458 23.6379 36.9458 22.1089 37.9661C19.8035 38.2203 17.6676 37.5051 15.4571 36.9051C15.0537 36.8 14.6502 36.6915 14.2366 36.583C13.0161 36.2576 11.799 35.9254 10.5819 35.5932C10.0428 35.4475 10.0428 35.4475 9.49357 35.2983C8.52055 35.0339 7.54753 34.7627 6.57791 34.4915C6.28973 34.4136 6.00494 34.3322 5.7066 34.2508C1.97726 33.1864 1.97726 33.1864 0.939827 31.9695C0.380427 29.6678 1.44159 26.9491 2.04168 24.7254C2.13321 24.3797 2.22475 24.0339 2.31968 23.678C2.50276 22.9898 2.68923 22.3017 2.8723 21.6136C3.0825 20.8237 3.2927 20.0339 3.49951 19.2407C3.8182 18.0237 4.14706 16.8068 4.47931 15.5932C4.58102 15.2136 4.58102 15.2136 4.68612 14.8271C4.8997 14.0203 5.12347 13.2169 5.34723 12.4169C5.41503 12.1627 5.48284 11.9119 5.55064 11.6508C5.72694 11.0339 5.94731 10.4305 6.17446 9.8305C6.5101 9.71864 6.84574 9.60677 7.19155 9.49152C7.19155 9.26779 7.19155 9.04406 7.19155 8.81355C7.46278 8.6644 7.46278 8.6644 7.73739 8.51525C8.27984 8.21694 8.82229 7.92203 9.36135 7.62372C9.98177 7.28474 10.6022 6.94576 11.2192 6.61016C12.6194 5.84406 14.0061 5.07796 15.3588 4.23389C17.3998 2.96949 18.9729 2.04067 21.4342 2.31186C22.509 2.41016 23.5396 1.97288 24.6516 1.94915ZM22.1089 3.72881C22.6683 4.73559 23.2277 5.74237 23.804 6.77965C25.2992 6.04406 25.2992 6.04406 26.1773 4.74576C26.1027 3.8305 26.1027 3.8305 25.8382 3.05084C24.3974 2.41694 23.4345 3.09152 22.1089 3.72881ZM16.7895 7.13898C15.8843 8.08474 15.8843 8.08474 15.986 9.3661C16.264 10.4915 16.264 10.4915 16.8946 11.1864C18.0914 11.6881 18.844 11.5458 20.0747 11.1864C20.7256 10.3661 21.0918 9.87118 21.0918 8.81355C20.7697 8.73559 20.4476 8.66101 20.1154 8.57965C19.0576 8.13559 19.0576 8.13559 18.5898 7.24406C18.488 6.84745 18.488 6.84745 18.3796 6.44067C17.5998 6.37288 17.5998 6.37288 16.7895 7.13898ZM19.3967 6.77965C19.7323 7.28135 19.7323 7.28135 20.0747 7.7966C20.2985 7.68474 20.5222 7.57288 20.7528 7.45762C20.3053 7.23389 19.8577 7.01016 19.3967 6.77965ZM14.6502 13.2203C14.379 13.9085 14.379 13.9085 14.1688 14.7559C14.0366 15.2475 14.0366 15.2475 13.901 15.7491C13.8094 16.1051 13.7145 16.461 13.6196 16.8271C13.5246 17.1898 13.4263 17.5559 13.328 17.9322C13.1212 18.7051 12.9178 19.4746 12.7144 20.2508C12.4058 21.4305 12.0905 22.6136 11.7752 23.7932C11.5786 24.5424 11.382 25.2949 11.1819 26.0441C11.0904 26.3966 10.9955 26.7491 10.8972 27.1152C10.8124 27.4475 10.7242 27.7763 10.6361 28.1186C10.5615 28.4102 10.4835 28.6983 10.4056 29C10.236 29.861 10.2123 30.6475 10.2428 31.5254C11.9515 32.3627 13.0466 32.6 14.9893 32.5424C16.5149 27.0203 17.9761 21.4814 19.3967 15.9322C19.5085 15.5559 19.5085 15.5559 19.6204 15.1729C19.8137 14.5491 19.8137 14.5491 19.356 14.0102C18.5728 13.4576 17.9422 13.3085 17.0031 13.1356C16.7047 13.078 16.4064 13.0203 16.1013 12.9593C15.3181 12.8102 15.3181 12.8102 14.6502 13.2203Z" fill="#1167B1"/>
<path d="M76.2717 15.2198C77.0108 15.5927 77.0108 15.5927 78.0482 16.2707C78.0482 16.4944 78.0482 16.7181 78.0482 16.9486C78.2448 17.0198 78.4415 17.0876 78.6415 17.1622C80.0824 18.0402 80.6045 19.0673 81.0215 20.6571C81.5233 23.3927 81.7301 25.8605 80.2451 28.308C78.3804 30.8368 76.3666 31.9317 73.3018 32.5419C70.9252 32.6198 68.7011 31.7554 66.7754 30.4232C64.8531 28.5012 63.9954 26.352 63.6835 23.6436C63.9242 21.2164 64.7412 18.6774 66.5212 16.9486C69.3927 14.8097 72.7729 14.0808 76.2717 15.2198ZM70.2505 20.3385C69.1724 21.6063 69.0774 22.752 69.1385 24.3554C69.3283 25.7961 69.9318 26.5215 71.0337 27.4164C72.4983 28.0266 73.4882 27.6571 74.9122 27.0774C75.9971 26.1724 76.1259 25.4503 76.353 24.0673C76.4005 22.5961 76.1767 21.5791 75.2953 20.3588C73.5255 19.091 71.9558 18.9181 70.2505 20.3385Z" fill="#1167B1"/>
<path d="M48.6592 14.8252C49.1101 14.8286 49.1101 14.8286 49.5712 14.832C49.8696 14.8286 50.1713 14.8286 50.4832 14.8252C51.2664 14.9168 51.2664 14.9168 51.9444 15.5947C51.9919 16.5778 52.0055 17.5337 51.9851 18.5168C51.9817 18.7879 51.9783 19.0591 51.9783 19.3405C51.9682 20.0117 51.958 20.6829 51.9444 21.3574C53.7345 21.3574 55.5246 21.3574 57.3689 21.3574C57.3588 20.9473 57.352 20.5405 57.3452 20.1201C57.3384 19.5845 57.3316 19.0523 57.3248 18.5168C57.3215 18.249 57.3147 17.9778 57.3079 17.6998C57.3011 16.9981 57.3316 16.2964 57.3689 15.5947C58.047 14.9168 58.047 14.9168 58.8301 14.8252C59.2811 14.8286 59.2811 14.8286 59.7421 14.832C60.0405 14.8286 60.3422 14.8286 60.6541 14.8252C61.4373 14.9168 61.4373 14.9168 62.1153 15.5947C62.1967 16.293 62.1967 16.293 62.1899 17.1642C62.1899 17.4896 62.1899 17.8151 62.1899 18.1506C62.1865 18.5032 62.1832 18.8557 62.1798 19.2184C62.1798 19.5778 62.1798 19.9405 62.1764 20.31C62.173 21.4625 62.1662 22.6184 62.156 23.771C62.1526 24.5506 62.1493 25.3337 62.1493 26.1134C62.1391 28.032 62.1289 29.9473 62.1153 31.8659C61.322 32.2625 60.8135 32.2591 59.932 32.2659C59.6675 32.2727 59.4031 32.2761 59.1285 32.2829C58.386 32.2049 58.386 32.2049 57.3689 31.5269C57.2537 30.8896 57.2537 30.8896 57.2672 30.1235C57.2706 29.8523 57.274 29.5778 57.2774 29.2964C57.2876 29.0117 57.2943 28.7269 57.3045 28.432C57.3113 28.0015 57.3113 28.0015 57.3181 27.5608C57.3316 26.849 57.3486 26.1371 57.3689 25.4252C55.5788 25.4252 53.7888 25.4252 51.9444 25.4252C51.9444 27.5506 51.9444 29.6761 51.9444 31.8659C51.1002 32.2862 50.5103 32.249 49.5712 32.2456C49.2695 32.2456 48.9677 32.249 48.6592 32.249C47.8761 32.2049 47.8761 32.2049 47.198 31.8659C47.1811 29.5608 47.1675 27.2557 47.1607 24.9506C47.1573 24.1642 47.1505 23.3812 47.1472 22.5947C47.137 21.4693 47.1336 20.3439 47.1302 19.2184C47.1268 18.8659 47.1234 18.5134 47.12 18.1506C47.12 17.8252 47.12 17.4998 47.12 17.1642C47.12 16.8761 47.1166 16.5879 47.1166 16.293C47.2387 15.232 47.6184 14.9439 48.6592 14.8252Z" fill="#1167B1"/>
<path d="M104.832 14.8305C105.121 14.8271 105.405 14.8271 105.7 14.8237C106.643 14.9288 107.101 15.0576 107.884 15.5932C108.352 16.5322 108.352 16.5322 108.772 17.7288C108.85 17.9424 108.924 18.1593 109.006 18.3797C109.25 19.0644 109.487 19.7559 109.728 20.4441C109.965 21.1186 110.203 21.7898 110.443 22.4644C110.599 22.9085 110.755 23.3525 110.911 23.8C111.555 25.6373 112.281 27.4339 113.037 29.2271C113.339 30.2712 113.322 30.8407 112.969 31.8644C112.125 32.2847 111.535 32.2475 110.596 32.2475C110.294 32.2475 109.996 32.2475 109.684 32.2475C108.901 32.2034 108.901 32.2034 108.223 31.8644C107.999 31.1932 107.775 30.522 107.545 29.8305C105.643 29.7186 103.741 29.6068 101.781 29.4915C101.669 30.1627 101.557 30.8339 101.442 31.5254C100.384 32.2305 100.11 32.2949 98.8994 32.2881C98.5061 32.2915 98.5061 32.2915 98.106 32.2949C97.3737 32.2034 97.3737 32.2034 96.3566 31.5254C96.5567 29.6644 97.0245 28.0441 97.6721 26.2915C97.7568 26.0508 97.845 25.8102 97.9331 25.5593C98.4417 24.1525 98.9672 22.7492 99.4961 21.3492C99.6656 20.8983 99.8317 20.4508 99.9944 20C100.239 19.3356 100.489 18.6712 100.744 18.0102C100.825 17.7831 100.906 17.5593 100.988 17.3288C101.347 16.4 101.615 15.7186 102.418 15.1085C103.249 14.8847 103.971 14.8237 104.832 14.8305ZM104.493 21.3559C104.32 21.8441 104.154 22.3288 103.985 22.817C103.89 23.0881 103.795 23.3593 103.7 23.6407C103.429 24.4373 103.429 24.4373 103.476 25.4237C104.371 25.4237 105.266 25.4237 106.189 25.4237C105.717 23.3153 105.717 23.3153 104.832 21.3559C104.721 21.3559 104.609 21.3559 104.493 21.3559Z" fill="#1167B1"/>
<path d="M41.7926 15.821C43.4097 16.9261 44.3319 18.0278 44.8032 19.9362C44.8235 21.0176 44.8235 21.0176 44.4845 21.6956C40.8636 21.96 40.8636 21.96 39.7753 21.3159C39.616 21.1634 39.4566 21.0074 39.2939 20.8481C38.4362 19.8922 38.4362 19.8922 37.1546 19.8108C35.8358 20.0278 35.4391 20.2989 34.6526 21.3566C34.1034 23.0074 34.0389 24.4854 34.7577 26.0583C35.3306 26.8549 35.3306 26.8549 36.3477 27.4583C37.7479 27.4278 38.2666 27.2278 39.2939 26.2515C40.5076 25.1295 41.7553 25.2617 43.3352 25.2989C44.1454 25.4244 44.1454 25.4244 44.8235 26.1023C44.9455 27.1905 44.8913 27.9566 44.5048 28.9837C43.2334 30.5261 41.4061 31.8718 39.399 32.204C36.6902 32.4244 34.239 32.4278 31.9403 30.8481C30.0994 29.2108 29.0213 27.3905 28.7704 24.9396C28.6517 21.8549 28.9806 19.4447 31.0656 17.0786C33.9915 14.4176 38.2972 13.9939 41.7926 15.821Z" fill="#1167B1"/>
<path d="M84.7157 14.821C85.1089 14.8244 85.1089 14.8244 85.509 14.8244C85.7768 14.8244 86.0447 14.8244 86.3193 14.8244C86.8889 14.8244 87.455 14.8244 88.0246 14.8278C88.8959 14.8312 89.7638 14.8278 90.6351 14.821C91.1878 14.8244 91.737 14.8244 92.2896 14.8244C92.5507 14.8244 92.8117 14.821 93.0796 14.821C94.9239 14.838 94.9239 14.838 95.6799 15.5939C95.7443 16.4007 95.7443 16.4007 95.7206 17.3295C95.7138 17.638 95.707 17.9465 95.7037 18.2651C95.6935 18.5024 95.6867 18.7397 95.6799 18.9838C94.7001 19.3092 94.0865 19.3566 93.0728 19.3431C92.6625 19.3397 92.6625 19.3397 92.2421 19.3329C91.9302 19.3295 91.9302 19.3295 91.6116 19.3227C91.6149 19.6753 91.6217 20.0312 91.6251 20.3939C91.6455 21.7092 91.6556 23.021 91.6658 24.3363C91.6726 24.9024 91.6794 25.4719 91.6861 26.0414C91.6997 26.8583 91.7065 27.6753 91.7099 28.4922C91.7133 28.7465 91.72 29.0007 91.7268 29.2617C91.7268 31.021 91.7268 31.021 91.1471 31.8549C90.3775 32.3397 89.8011 32.3499 88.8993 32.3532C88.6044 32.3566 88.3094 32.3634 88.0077 32.3702C87.2042 32.2041 87.2042 32.2041 86.6515 31.6821C86.0074 30.5295 86.0582 29.4753 86.0854 28.1939C86.0887 27.9397 86.0887 27.6855 86.0921 27.4244C86.0955 26.6177 86.1091 25.8075 86.1226 25.0007C86.126 24.4516 86.1328 23.9024 86.1362 23.3532C86.1464 22.0075 86.1633 20.6651 86.1871 19.3227C85.9769 19.3295 85.7701 19.3363 85.5531 19.3465C85.1428 19.3566 85.1428 19.3566 84.7225 19.3634C84.4512 19.3736 84.18 19.3804 83.902 19.3871C83.1358 19.3227 83.1358 19.3227 82.1187 18.6448C81.9933 17.9329 81.9933 17.9329 82.0102 17.1194C82.0136 16.8482 82.0136 16.5804 82.017 16.3024C82.2475 14.6855 83.3324 14.8346 84.7157 14.821Z" fill="#1167B1"/>
</g>
<defs>
<clipPath id="clip0_826_158">
<rect width="112.558" height="40" fill="white" transform="translate(0.75)"/>
</clipPath>
</defs>
</svg>
