<svg width="25" height="25" viewBox="0 0 25 25" fill="none" xmlns="http://www.w3.org/2000/svg">
<path d="M19.1561 23.2941C17.8698 24.5574 16.4507 24.3605 15.0979 23.7648C13.6597 23.1572 12.345 23.1188 10.8261 23.7648C8.93466 24.5911 7.93079 24.3509 6.79164 23.2941C0.360207 16.593 1.3095 6.38522 8.61902 6.00093C10.3918 6.097 11.633 6.99288 12.6772 7.06734C14.2293 6.7479 15.715 5.8328 17.3762 5.95289C19.3721 6.11621 20.8648 6.91362 21.8616 8.34751C17.7559 10.8454 18.729 16.3216 22.5 17.8587C21.7453 19.8643 20.777 21.8458 19.1538 23.3109L19.1561 23.2941ZM12.5348 5.92887C12.3426 2.95061 14.7277 0.500742 17.4711 0.260559C17.8485 3.69517 14.386 6.26513 12.5348 5.92887Z" fill="#101623"/>
</svg>
