<svg width="25" height="25" viewBox="0 0 25 25" fill="none" xmlns="http://www.w3.org/2000/svg">
<g clip-path="url(#clip0_826_143)">
<path d="M12.5 24.2606C19.1274 24.2606 24.5 18.888 24.5 12.2606C24.5 5.63314 19.1274 0.260559 12.5 0.260559C5.87258 0.260559 0.5 5.63314 0.5 12.2606C0.5 18.888 5.87258 24.2606 12.5 24.2606Z" fill="#3577E5"/>
<path d="M13.62 19.3806V12.9006H15.78L16.1 10.3406H13.62V8.74056C13.62 8.02056 13.86 7.54056 14.9 7.54056H16.26V5.22056C16.02 5.22056 15.22 5.14056 14.34 5.14056C12.42 5.14056 11.06 6.34056 11.06 8.50056V10.3406H8.89999V12.9006H11.06V19.3806H13.62Z" fill="white"/>
</g>
<defs>
<clipPath id="clip0_826_143">
<rect width="24" height="24" fill="white" transform="translate(0.5 0.260559)"/>
</clipPath>
</defs>
</svg>
