<svg width="25" height="25" viewBox="0 0 25 25" fill="none" xmlns="http://www.w3.org/2000/svg">
<path d="M24.5 12.5363C24.5 11.7292 24.4285 10.9629 24.3059 10.217H12.7605V14.825H19.371C19.0747 16.3371 18.2063 17.6142 16.9189 18.4827V21.5478H20.8627C23.1718 19.4124 24.5 16.2656 24.5 12.5363Z" fill="#4285F4"/>
<path d="M12.7606 24.5212C16.071 24.5212 18.8398 23.4178 20.8628 21.548L16.919 18.4829C15.8155 19.2185 14.4158 19.6681 12.7606 19.6681C9.56267 19.6681 6.85514 17.5123 5.88451 14.6004H1.8181V17.7575C3.83087 21.7626 7.9688 24.5212 12.7606 24.5212Z" fill="#34A853"/>
<path d="M5.88442 14.6002C5.62899 13.8646 5.49617 13.0778 5.49617 12.2605C5.49617 11.4431 5.63921 10.6564 5.88442 9.92076V6.76367H1.81801C0.980203 8.41884 0.5 10.2784 0.5 12.2605C0.5 14.2426 0.980203 16.1021 1.81801 17.7573L5.88442 14.6002Z" fill="#FBBC05"/>
<path d="M12.7606 4.85313C14.5691 4.85313 16.1834 5.47638 17.4605 6.69221L20.9548 3.19796C18.8398 1.21584 16.071 0 12.7606 0C7.9688 0 3.83087 2.75862 1.8181 6.76373L5.88451 9.92082C6.85514 7.00894 9.56267 4.85313 12.7606 4.85313Z" fill="#EA4335"/>
</svg>
