<svg width="22" height="22" viewBox="0 0 22 22" fill="none" xmlns="http://www.w3.org/2000/svg">
<path d="M20.3334 19.1666V9.24998C20.3334 9.06886 20.2912 8.89023 20.2102 8.72823C20.1292 8.56623 20.0116 8.42532 19.8667 8.31665L11.7 2.19165C11.4981 2.04019 11.2525 1.95831 11 1.95831C10.7476 1.95831 10.502 2.04019 10.3 2.19165L2.13335 8.31665C1.98846 8.42532 1.87085 8.56623 1.78986 8.72823C1.70886 8.89023 1.66669 9.06886 1.66669 9.24998V19.1666C1.66669 19.4761 1.7896 19.7728 2.0084 19.9916C2.22719 20.2104 2.52393 20.3333 2.83335 20.3333H7.50002C7.80944 20.3333 8.10619 20.2104 8.32498 19.9916C8.54377 19.7728 8.66669 19.4761 8.66669 19.1666V15.6666C8.66669 15.3572 8.7896 15.0605 9.0084 14.8417C9.22719 14.6229 9.52393 14.5 9.83335 14.5H12.1667C12.4761 14.5 12.7729 14.6229 12.9916 14.8417C13.2104 15.0605 13.3334 15.3572 13.3334 15.6666V19.1666C13.3334 19.4761 13.4563 19.7728 13.6751 19.9916C13.8939 20.2104 14.1906 20.3333 14.5 20.3333H19.1667C19.4761 20.3333 19.7729 20.2104 19.9916 19.9916C20.2104 19.7728 20.3334 19.4761 20.3334 19.1666Z" fill="#1167B1" stroke="#1167B1" stroke-width="2" stroke-linecap="round" stroke-linejoin="round"/>
</svg>
