<svg width="26" height="24" viewBox="0 0 26 24" fill="none" xmlns="http://www.w3.org/2000/svg">
<path d="M12.9451 0.625C10.242 0.625 8.14081 0.625 6.50515 0.8C4.85081 0.9785 3.54065 1.34833 2.49531 2.18367C1.42198 3.04233 0.920313 4.15883 0.68348 5.567C0.458313 6.911 0.458313 8.62133 0.458313 10.754V10.9675C0.458313 13.0465 0.458313 14.485 0.691646 15.5572C0.817646 16.1347 1.01598 16.6363 1.32748 17.1007C1.63548 17.558 2.02748 17.943 2.49531 18.3163C3.23148 18.9055 4.09948 19.2613 5.12498 19.483V22.5C5.12512 22.6533 5.16553 22.8039 5.24216 22.9366C5.3188 23.0694 5.42897 23.1797 5.56165 23.2565C5.69433 23.3333 5.84486 23.3739 5.99816 23.3742C6.15146 23.3745 6.30215 23.3346 6.43515 23.2583C7.11881 22.8675 7.72431 22.4417 8.27848 22.0403L8.63315 21.7825C9.02777 21.4871 9.43083 21.2031 9.84181 20.9308C10.8265 20.2915 11.7668 19.875 13 19.875H13.0548C15.758 19.875 17.8591 19.875 19.4948 19.7C21.1491 19.5215 22.4593 19.1517 23.5046 18.3163C23.9713 17.943 24.3645 17.558 24.6713 17.1007C24.984 16.6363 25.1823 16.1347 25.3083 15.5572C25.5416 14.485 25.5416 13.0465 25.5416 10.9675V10.754C25.5416 8.62133 25.5416 6.911 25.3165 5.56817C25.0796 4.15883 24.578 3.04233 23.5046 2.18367C22.4593 1.34717 21.1491 0.9785 19.4948 0.801167C17.8591 0.625 15.758 0.625 13.0548 0.625H12.9451Z" fill="#333333" fill-opacity="0.66"/>
</svg>
