<svg width="24" height="24" viewBox="0 0 24 24" fill="none" xmlns="http://www.w3.org/2000/svg">
<path d="M22.9783 11.3116L12.6766 1.00998C12.245 0.578313 11.65 0.333313 11.0316 0.333313H2.66665C1.38331 0.333313 0.333313 1.38331 0.333313 2.66665V11.0316C0.333313 11.65 0.578313 12.245 1.02165 12.6766L11.3233 22.9783C12.2333 23.8883 13.715 23.8883 14.625 22.9783L22.99 14.6133C23.9 13.7033 23.9 12.2333 22.9783 11.3116ZM5.58331 7.33331C4.61498 7.33331 3.83331 6.55165 3.83331 5.58331C3.83331 4.61498 4.61498 3.83331 5.58331 3.83331C6.55165 3.83331 7.33331 4.61498 7.33331 5.58331C7.33331 6.55165 6.55165 7.33331 5.58331 7.33331Z" fill="#333333" fill-opacity="0.66"/>
</svg>
