<svg width="37" height="36" viewBox="0 0 37 36" fill="none" xmlns="http://www.w3.org/2000/svg">
<rect x="0.308105" y="-0.000183105" width="36.0004" height="36.0004" rx="18.0002" fill="#1167B1" fill-opacity="0.1"/>
<rect x="0.808105" y="0.499817" width="35.0004" height="35.0004" rx="17.5002" stroke="#1167B1" stroke-opacity="0.2"/>
<path d="M26.3085 26.0002L22.2585 21.9502M22.2585 21.9502C22.9085 21.3001 23.4241 20.5284 23.7759 19.6791C24.1278 18.8298 24.3088 17.9195 24.3088 17.0002C24.3088 16.0809 24.1278 15.1706 23.7759 14.3213C23.4241 13.4719 22.9085 12.7002 22.2585 12.0502C21.6084 11.4001 20.8367 10.8845 19.9874 10.5327C19.1381 10.1809 18.2278 9.99982 17.3085 9.99982C16.3892 9.99982 15.4789 10.1809 14.6295 10.5327C13.7802 10.8845 13.0085 11.4001 12.3585 12.0502C11.0456 13.363 10.3081 15.1436 10.3081 17.0002C10.3081 18.8568 11.0456 20.6374 12.3585 21.9502C13.6713 23.263 15.4519 24.0005 17.3085 24.0005C19.1651 24.0005 20.9456 23.263 22.2585 21.9502Z" stroke="#1167B1" stroke-width="2" stroke-linecap="round" stroke-linejoin="round"/>
</svg>
