<svg width="37" height="36" viewBox="0 0 37 36" fill="none" xmlns="http://www.w3.org/2000/svg">
<rect x="0.308472" width="36" height="36" rx="18" fill="#1167B1" fill-opacity="0.1"/>
<rect x="0.808472" y="0.5" width="35" height="35" rx="17.5" stroke="#1167B1" stroke-opacity="0.2"/>
<g clip-path="url(#clip0_826_170)">
<path fill-rule="evenodd" clip-rule="evenodd" d="M17.4597 11.0664C17.5157 10.9428 17.5375 10.8062 17.5226 10.6711C17.5078 10.5361 17.4569 10.4076 17.3754 10.2992C17.2938 10.1908 17.1847 10.1066 17.0595 10.0554C16.9342 10.0043 16.7976 9.98813 16.664 10.0086C13.0647 10.5635 10.3085 13.6879 10.3085 17.4606C10.3085 21.6246 13.6662 25 17.8085 25C21.9507 25 25.3085 21.6246 25.3085 17.4606L25.3055 17.2495C25.3017 17.1136 25.2615 16.9812 25.189 16.8664C25.1165 16.7515 25.0145 16.6586 24.8937 16.5973C24.773 16.536 24.638 16.5087 24.503 16.5183C24.3681 16.5278 24.2382 16.5739 24.1272 16.6516C23.318 17.2181 22.3462 17.5017 21.361 17.4589C20.3759 17.4161 19.432 17.0491 18.6745 16.4145C17.917 15.7799 17.3879 14.9127 17.1684 13.9464C16.9489 12.98 17.0513 11.9679 17.4597 11.0657" fill="#1167B1"/>
</g>
<defs>
<clipPath id="clip0_826_170">
<rect width="16" height="16" fill="white" transform="translate(10.3085 10)"/>
</clipPath>
</defs>
</svg>
